<?xml version="1.0" encoding="UTF-8"?>
<svg version="1.1" xmlns="http://www.w3.org/2000/svg" width="340" height="257">
<path d="M0 0 C112.2 0 224.4 0 340 0 C340 84.81 340 169.62 340 257 C227.8 257 115.6 257 0 257 C0 172.19 0 87.38 0 0 Z " fill="#F97316" transform="translate(0,0)"/>
<path d="M0 0 C112.2 0 224.4 0 340 0 C340 84.81 340 169.62 340 257 C227.8 257 115.6 257 0 257 C0 172.19 0 87.38 0 0 Z M72 44 C65.85753579 52.51207863 60.88530495 62.68890058 60.86628723 73.32452393 C60.86202225 74.40388718 60.85775726 75.48325043 60.85336304 76.59532166 C60.85381622 77.77461746 60.85426941 78.95391327 60.85473633 80.16894531 C60.85137772 81.41488968 60.8480191 82.66083405 60.84455872 83.9445343 C60.83668524 87.36003355 60.83338102 90.775472 60.83274293 94.19097614 C60.83203158 96.32714663 60.82989559 98.46331077 60.82724571 100.59947968 C60.81799461 108.05867415 60.81391036 115.51785076 60.81469727 122.97705078 C60.81529738 129.91842256 60.80475801 136.85971646 60.7889536 143.80106854 C60.77585229 149.76895679 60.77051448 155.73681966 60.77115268 161.70472217 C60.77140698 165.26522481 60.76859321 168.82565829 60.75797462 172.38614655 C60.74644133 176.36195377 60.75105632 180.33765536 60.75708008 184.31347656 C60.75146057 185.48467545 60.74584106 186.65587433 60.74005127 187.86256409 C60.79589613 202.38323438 65.28383252 215.07724963 75 226 C75.49886719 226.60328125 75.99773437 227.2065625 76.51171875 227.828125 C84.81913872 237.11904306 97.64473718 243.13649699 109.98387337 244.27541542 C113.21173856 244.37980988 116.42701864 244.39429727 119.65649414 244.37231445 C120.8709874 244.37596512 122.08548065 244.37961578 123.33677673 244.38337708 C126.63434792 244.39004489 129.93154298 244.38344178 133.2290833 244.37004495 C136.69971393 244.35862789 140.17033191 244.36284574 143.64097595 244.36479187 C149.46520851 244.36567152 155.28932394 244.35466281 161.11352539 244.33618164 C167.82382796 244.31500912 174.53395929 244.31150827 181.2442885 244.3177436 C187.73108789 244.32346001 194.21782767 244.31776551 200.70461845 244.30657005 C203.45116732 244.30195513 206.19767937 244.30103661 208.94423103 244.3031559 C212.78721909 244.30352843 216.62995098 244.29085379 220.47290039 244.2746582 C221.59785919 244.27713562 222.72281799 244.27961304 223.88186646 244.28216553 C233.75581021 244.21604757 242.33145889 242.90228884 251.125 238.3125 C251.81730713 237.95438232 252.50961426 237.59626465 253.22290039 237.22729492 C265.82412909 230.51724096 274.39348813 219.60279134 279.34375 206.21875 C280.60705777 201.94756658 281.12702924 197.96477312 281.14717102 193.51293945 C281.15432632 192.42259903 281.16148163 191.33225861 281.16885376 190.20887756 C281.17154266 189.02233078 281.17423157 187.835784 281.17700195 186.61328125 C281.18685875 184.72693214 281.18685875 184.72693214 281.19691467 182.80247498 C281.21788993 178.63916281 281.22831467 174.47585057 281.23828125 170.3125 C281.24233201 168.87365704 281.24644902 167.43481426 281.25063133 165.99597168 C281.26967295 159.23046282 281.28390308 152.46496476 281.2922433 145.69943428 C281.30199575 137.91887588 281.32826709 130.13860347 281.36874419 122.35814571 C281.39903378 116.32646682 281.41372448 110.29486928 281.41702431 104.26311588 C281.41936125 100.66939129 281.42814173 97.07597254 281.45348549 93.48233032 C281.48138051 89.4619997 281.47689618 85.44229665 281.4699707 81.421875 C281.48278076 80.25152206 281.49559082 79.08116913 281.50878906 77.87535095 C281.42773155 64.88410716 277.56149618 54.45112973 270 44 C269.2575 42.948125 268.515 41.89625 267.75 40.8125 C260.37942443 33.27441135 251.91882218 28.42119803 242 25 C241.03921539 24.65520599 240.07843079 24.31041199 239.08853149 23.95516968 C233.71036288 22.44622285 228.20508332 22.70510853 222.66162109 22.70947266 C220.81872498 22.69939682 220.81872498 22.69939682 218.93859863 22.68911743 C215.58279939 22.67341766 212.22724775 22.66676478 208.87142897 22.66548586 C206.76852975 22.66405917 204.66565606 22.65977969 202.56276321 22.65449142 C195.20800393 22.63600939 187.8533169 22.627818 180.49853516 22.62939453 C173.67354786 22.63059353 166.84887803 22.6095343 160.02397096 22.5779072 C154.14085784 22.55162904 148.2578476 22.54103213 142.37467635 22.54230535 C138.87154118 22.54281187 135.36868804 22.53730363 131.86561203 22.51594925 C127.94853452 22.49272192 124.03188089 22.50215788 120.11474609 22.51416016 C118.97558746 22.50292114 117.83642883 22.49168213 116.66275024 22.48010254 C98.76125643 22.61854271 83.46108573 30.34902824 72 44 Z " fill="#FEFAF8" transform="translate(0,0)"/>
<path d="M0 0 C2.62065121 4.79098647 3.60678787 9.7459015 2.59542847 15.16964722 C1.92221164 17.42485744 1.14386506 19.60828343 0.30859375 21.80859375 C-0.13620079 23.051464 -0.13620079 23.051464 -0.58998108 24.31944275 C-1.56409006 27.03184311 -2.56309752 29.73432878 -3.5625 32.4375 C-4.95436919 36.2797716 -6.33425463 40.12631967 -7.71484375 43.97265625 C-8.24754883 45.44810913 -8.24754883 45.44810913 -8.79101562 46.95336914 C-11.29799655 53.92948861 -13.65994685 60.9432304 -15.94140625 67.99609375 C-16.25402908 68.9581926 -16.56665192 69.92029144 -16.88874817 70.9115448 C-18.10077165 74.64650731 -19.31115654 78.38167847 -20.49417114 82.12594604 C-21.30850654 84.70038081 -22.14088242 87.26836691 -22.9765625 89.8359375 C-23.20940445 90.59237045 -23.4422464 91.34880341 -23.68214417 92.12815857 C-25.23820352 96.84455931 -27.0384272 99.78320599 -31 103 C-34 103.625 -34 103.625 -37 103 C-41.79005257 99.13643954 -43.14852337 95.52061413 -44.75 89.83984375 C-50.24971776 70.01422005 -50.24971776 70.01422005 -64.08203125 56.03125 C-70.02745062 53.21342282 -76.33574088 51.42616161 -82.70947266 49.84716797 C-95.11116536 46.65427038 -95.11116536 46.65427038 -99 42 C-99.50390625 39.87890625 -99.50390625 39.87890625 -99.5625 37.5625 C-99.62630859 36.41974609 -99.62630859 36.41974609 -99.69140625 35.25390625 C-98.83295596 32.45545529 -97.50463193 31.62019482 -95.0856781 30.08638 C-90.43796041 27.66549465 -85.3853933 26.18810919 -80.421875 24.55078125 C-78.52563311 23.91292012 -76.62939139 23.27505849 -74.73315811 22.63717175 C-72.07503063 21.74556043 -69.41417177 20.86225144 -66.75335693 19.97869873 C-62.84251299 18.67818197 -58.93548025 17.36627776 -55.02814484 16.05526543 C-51.81337686 14.97682108 -48.5978401 13.90083628 -45.38024902 12.83084106 C-39.08366845 10.73323415 -32.80773333 8.59023869 -26.56054688 6.34912109 C-25.38268616 5.92938522 -24.20482544 5.50964935 -22.99127197 5.07719421 C-20.78470779 4.28736135 -18.58172225 3.48742599 -16.38323975 2.67536926 C-10.65139941 0.62956393 -6.09017287 -0.44791361 0 0 Z " fill="#FEFCFA" transform="translate(219,82)"/>
<path d="M0 0 C-9.9 9.9 -19.8 19.8 -30 30 C-41.25 26.625 -41.25 26.625 -44.9140625 25.17578125 C-45.69394531 24.86962891 -46.47382813 24.56347656 -47.27734375 24.24804688 C-48.05207031 23.93931641 -48.82679688 23.63058594 -49.625 23.3125 C-50.84509766 22.83200195 -50.84509766 22.83200195 -52.08984375 22.34179688 C-54.06132051 21.56480309 -56.03087373 20.78293147 -58 20 C-58 19.34 -58 18.68 -58 18 C-50.73606336 15.49661089 -43.469401 13.00128376 -36.19914436 10.51631069 C-32.82359957 9.36226503 -29.44906477 8.2054296 -26.07666016 7.04223633 C-22.20235096 5.70606453 -18.3239992 4.38200507 -14.4453125 3.05859375 C-12.6233989 2.42744911 -12.6233989 2.42744911 -10.76467896 1.78355408 C-9.64366791 1.40308426 -8.52265686 1.02261444 -7.36767578 0.63061523 C-6.37728302 0.29086166 -5.38689026 -0.04889191 -4.3664856 -0.39894104 C-2 -1 -2 -1 0 0 Z " fill="#F9781E" transform="translate(196,101)"/>
<path d="M0 0 C1 2 1 2 0.33837891 4.38476562 C-0.02852051 5.38185547 -0.39541992 6.37894531 -0.7734375 7.40625 C-1.18207031 8.53111816 -1.59070313 9.65598633 -2.01171875 10.81494141 C-2.46160156 12.03101074 -2.91148437 13.24708008 -3.375 14.5 C-4.30266683 17.03790482 -5.22544481 19.5775797 -6.1484375 22.1171875 C-6.38520203 22.76634125 -6.62196655 23.415495 -6.86590576 24.08432007 C-9.74870693 32.01122802 -12.45025618 40.00053767 -15.13037109 47.99804688 C-15.47922363 49.02220703 -15.82807617 50.04636719 -16.1875 51.1015625 C-16.49042969 52.00213379 -16.79335937 52.90270508 -17.10546875 53.83056641 C-18 56 -18 56 -20 58 C-21.70902169 54.11326022 -23.38834822 50.21437181 -25.0625 46.3125 C-25.54783203 45.20970703 -26.03316406 44.10691406 -26.53320312 42.97070312 C-26.98759766 41.90400391 -27.44199219 40.83730469 -27.91015625 39.73828125 C-28.33433838 38.75899658 -28.75852051 37.77971191 -29.19555664 36.77075195 C-30.15171923 33.47743201 -30.28273736 32.18865713 -29 29 C-27.04482975 26.52224137 -24.82484646 24.35985922 -22.55859375 22.16796875 C-21.91632339 21.53135818 -21.27405304 20.89474762 -20.61231995 20.23884583 C-18.56325815 18.21213477 -16.500716 16.19979019 -14.4375 14.1875 C-13.04400956 12.81407608 -11.65142022 11.43973724 -10.25976562 10.06445312 C-6.85020058 6.69893831 -3.42848004 3.34623954 0 0 Z " fill="#F9761B" transform="translate(204,108)"/>
</svg>
